<?xml version="1.0" standalone="no"?><!DOCTYPE svg PUBLIC "-//W3C//DTD SVG 1.1//EN" "http://www.w3.org/Graphics/SVG/1.1/DTD/svg11.dtd"><svg t="1774583402435" class="icon" viewBox="0 0 1024 1024" version="1.1" xmlns="http://www.w3.org/2000/svg" p-id="15385" xmlns:xlink="http://www.w3.org/1999/xlink" width="200" height="200"><path d="M220.467317 672.255731c7.331837-160.010176 80.322528-255.958938 108.748756-287.539085C190.115969 472.534851 97.751206 626.13479 57.938102 739.204824v47.779821C57.958582 917.913233 174.203015 1023.99959 317.747278 1023.99959a281.190288 281.190288 0 0 0 93.859802-15.994873c15.052794-5.119998 29.859828-10.588156 44.318702-16.138234 38.973424-38.359025 70.410212-81.489887 95.703002-127.651789-208.076717 103.710679-340.213624 3.071999-331.222907-191.999923l0.1024 0.04096z" fill="#1E37FC" p-id="15386"></path><path d="M956.886862 438.742865c-51.711979-38.440945-175.30873-102.563799-315.596674-119.459793 12.574715 161.791935 3.952638 374.00561-89.620444 544.972582a545.382182 545.382182 0 0 1-95.743962 127.651789c160.604096-61.767655 287.846285-147.496901 366.776174-222.678951 120.319952-114.483154 143.052743-220.917672 143.400902-284.159886a116.776913 116.776913 0 0 0-9.215996-46.243822z" fill="#37E1BE" p-id="15387"></path><path d="M604.159963 79.667168C546.652146 29.859828 473.804815 0 394.547247 0 315.269199 0 244.899947 28.876788 187.80173 77.107169c-74.83389 63.283175-124.51835 159.989696-129.925068 269.557652v392.580963c39.772144-113.070035 132.136907-266.669973 271.237011-354.426738a473.046851 473.046851 0 0 1 66.949093-35.389426c80.322528-34.160626 165.457854-39.751664 245.145502-30.105588-9.461756-120.750032-30.617588-213.421995-37.109745-239.656864z" fill="#A569FF" p-id="15388"></path><path d="M732.241832 211.660715a8510.706356 8510.706356 0 0 1-46.079982-46.673901c-8.601597-9.093116-16.998393-17.879033-24.98559-26.542069l-56.893417-58.777577c6.451197 26.21439 27.647989 118.865872 37.068785 239.656864 140.287944 16.855033 263.905174 80.977888 315.576194 119.459792-55.705578-54.394858-148.275141-148.78714-224.66551-227.123109z" fill="#1E37FC" p-id="15389"></path></svg>