<?xml version="1.0" standalone="no"?><!DOCTYPE svg PUBLIC "-//W3C//DTD SVG 1.1//EN" "http://www.w3.org/Graphics/SVG/1.1/DTD/svg11.dtd"><svg t="1774583259618" class="icon" viewBox="0 0 1024 1024" version="1.1" xmlns="http://www.w3.org/2000/svg" p-id="7491" xmlns:xlink="http://www.w3.org/1999/xlink" width="200" height="200"><path d="M620.757 376.021a77.568 77.568 0 1 0 0-155.136 77.568 77.568 0 0 0 0 155.136z m187.478 0.47a44.672 44.672 0 1 0 0-89.302 44.672 44.672 0 0 0 0 89.302z m0 357.418a44.672 44.672 0 1 0 0-89.301 44.672 44.672 0 0 0 0 89.259v0.042zM500.01 202.71a44.672 44.672 0 1 0 3.242-89.258 44.672 44.672 0 0 0-3.242 89.258zM192.597 376.491a44.672 44.672 0 1 0 0-89.302 44.672 44.672 0 0 0 0 89.302z m0 361.344a44.672 44.672 0 1 0 0-89.344 44.672 44.672 0 0 0 0 89.344z m755.499-191.446a32.427 32.427 0 1 0 0-64.81 32.427 32.427 0 0 0 0 64.81zM726.741 160a32.427 32.427 0 1 0 0-64.768 32.427 32.427 0 0 0 0 64.768z m202.752 118.272a14.25 14.25 0 1 0 0-28.459 14.25 14.25 0 0 0 0 28.459z m0 497.835a14.25 14.25 0 1 0 0-28.502 14.25 14.25 0 0 0 0 28.502zM507.264 1024a14.25 14.25 0 1 0 0-28.501 14.25 14.25 0 0 0 0 28.501zM68.437 776.107a14.25 14.25 0 1 0 0-28.459 14.25 14.25 0 0 0 0 28.501z m0-500.224a14.25 14.25 0 1 0 0-28.502 14.25 14.25 0 0 0 0 28.502zM495.104 28.5a14.25 14.25 0 1 0 0-28.501 14.25 14.25 0 0 0 0 28.501zM272.64 160a32.427 32.427 0 1 0 0-64.768 32.427 32.427 0 0 0 0 64.768zM53.717 546.39a32.427 32.427 0 1 0 0-64.811 32.427 32.427 0 0 0 0 64.81zM279.552 930.26a32.427 32.427 0 1 0 0-64.81 32.427 32.427 0 0 0 0 64.81z m447.19 4.395a32.427 32.427 0 1 0 1.749-64.768 32.427 32.427 0 0 0-1.707 64.768zM499.967 914.56a44.672 44.672 0 1 0 0-89.344 44.672 44.672 0 0 0 0 89.344z m245.419-330.923a73.643 73.643 0 1 0 0-147.2 73.643 73.643 0 0 0 0 147.2z m-245.419 35.371a105.045 105.045 0 1 0 0-210.048 105.045 105.045 0 0 0 0 210.048z m-244.95-35.285a73.643 73.643 0 1 0 0-147.2 73.643 73.643 0 0 0 0 147.114v0.086z m121.217-211.627a73.643 73.643 0 1 0 2.645-147.285 73.643 73.643 0 0 0-2.645 147.285z m0 427.605a73.643 73.643 0 0 0 0-147.242 73.643 73.643 0 0 0 0 147.2z m244.48 3.883a73.643 73.643 0 1 0 0-147.243 73.643 73.643 0 0 0 0 147.243z" fill="#1679FF" p-id="7492"></path><path d="M375.723 372.139s49.066-14.251 37.802 81.493c-11.264 95.701 103.68 28.459 103.68 28.459l-16.725-72.15s-67.755 11.734-66.304-65.792c26.965-105.557-58.368 27.947-58.368 27.947h-0.085z m40.789 200.234s11.264 63.36-40.704 82.987c-102.144 42.24 8.747 116.821 8.747 116.821l49.066-87.338a73.643 73.643 0 0 1 49.11-68.736c118.357-37.334-66.219-43.734-66.219-43.734z" fill="#1679FF" p-id="7493"></path><path d="M548.096 731.477a77.867 77.867 0 0 0 3.925 23.552 60.843 60.843 0 0 0-39.253-26.965h-30.507a66.688 66.688 0 0 0-40.704 28.885 67.413 67.413 0 0 0 7.339-31.402 66.304 66.304 0 0 0-4.907-26.027 64 64 0 0 0 43.222 25.045h29.44a69.973 69.973 0 0 0 37.802-24.021 69.717 69.717 0 0 0-6.4 30.933h0.043z" fill="#1679FF" p-id="7494"></path></svg>